{
  "accessors": [
    {
      "bufferView": 2,
      "componentType": 5126,
      "count": 65532,
      "max": [
        0.15032774209976196,
        0.253244549036026,
        0.1350453644990921
      ],
      "min": [
        -0.1514008641242981,
        -0.2296883463859558,
        -0.10904336720705032
      ],
      "type": "VEC3"
    },
    {
      "bufferView": 2,
      "byteOffset": 786384,
      "componentType": 5126,
      "count": 65532,
      "max": [
        0.9999715089797974,
        0.9999245405197144,
        0.9999638795852661
      ],
      "min": [
        -0.9999879598617554,
        -0.9999725818634033,
        -0.9998661279678345
      ],
      "type": "VEC3"
    },
    {
      "bufferView": 1,
      "componentType": 5126,
      "count": 65532,
      "max": [
        0.9437500238418579,
        0.9996939897537231
      ],
      "min": [
        0.040038999170064926,
        0.000307999987853691
      ],
      "type": "VEC2"
    },
    {
      "bufferView": 0,
      "componentType": 5125,
      "count": 244350,
      "type": "SCALAR"
    },
    {
      "bufferView": 2,
      "byteOffset": 1572768,
      "componentType": 5126,
      "count": 65532,
      "max": [
        0.1504049301147461,
        0.2531503736972809,
        0.1366441249847412
      ],
      "min": [
        -0.14749617874622345,
        -0.2296363264322281,
        -0.10289259999990463
      ],
      "type": "VEC3"
    },
    {
      "bufferView": 2,
      "byteOffset": 2359152,
      "componentType": 5126,
      "count": 65532,
      "max": [
        0.9999715089797974,
        0.9998151063919067,
        0.9999854564666748
      ],
      "min": [
        -0.9999468326568604,
        -0.9999904632568359,
        -0.9999983310699463
      ],
      "type": "VEC3"
    },
    {
      "bufferView": 1,
      "byteOffset": 524256,
      "componentType": 5126,
      "count": 65532,
      "max": [
        0.603888988494873,
        0.991428017616272
      ],
      "min": [
        0.0003600000054575503,
        0.021632999181747437
      ],
      "type": "VEC2"
    },
    {
      "bufferView": 0,
      "byteOffset": 977400,
      "componentType": 5125,
      "count": 343689,
      "type": "SCALAR"
    },
    {
      "bufferView": 2,
      "byteOffset": 3145536,
      "componentType": 5126,
      "count": 65532,
      "max": [
        0.14736835658550262,
        0.11001981049776077,
        0.10654307901859283
      ],
      "min": [
        -0.1425190269947052,
        -0.20699600875377655,
        -0.1094541847705841
      ],
      "type": "VEC3"
    },
    {
      "bufferView": 2,
      "byteOffset": 3931920,
      "componentType": 5126,
      "count": 65532,
      "max": [
        0.9999949932098389,
        0.999802827835083,
        0.9998524188995361
      ],
      "min": [
        -0.9998003244400024,
        -0.9988659620285034,
        -0.9999752044677734
      ],
      "type": "VEC3"
    },
    {
      "bufferView": 1,
      "byteOffset": 1048512,
      "componentType": 5126,
      "count": 65532,
      "max": [
        0.07905899733304977,
        0.9996839761734009
      ],
      "min": [
        0.0003060000017285347,
        0.008046000264585018
      ],
      "type": "VEC2"
    },
    {
      "bufferView": 0,
      "byteOffset": 2352156,
      "componentType": 5125,
      "count": 348810,
      "type": "SCALAR"
    },
    {
      "bufferView": 2,
      "byteOffset": 4718304,
      "componentType": 5126,
      "count": 65532,
      "max": [
        0.14869651198387146,
        0.2526428699493408,
        0.13750214874744415
      ],
      "min": [
        -0.1513839215040207,
        -0.22957830131053925,
        -0.10936404764652252
      ],
      "type": "VEC3"
    },
    {
      "bufferView": 2,
      "byteOffset": 5504688,
      "componentType": 5126,
      "count": 65532,
      "max": [
        0.9999490976333618,
        0.9999245405197144,
        0.9994335174560547
      ],
      "min": [
        -0.9999963045120239,
        -0.9999210834503174,
        -0.9999485015869141
      ],
      "type": "VEC3"
    },
    {
      "bufferView": 1,
      "byteOffset": 1572768,
      "componentType": 5126,
      "count": 65532,
      "max": [
        0.3588080108165741,
        0.9996770024299622
      ],
      "min": [
        0.00032900000223889947,
        0.0004140000091865659
      ],
      "type": "VEC2"
    },
    {
      "bufferView": 0,
      "byteOffset": 3747396,
      "componentType": 5125,
      "count": 340134,
      "type": "SCALAR"
    },
    {
      "bufferView": 2,
      "byteOffset": 6291072,
      "componentType": 5126,
      "count": 65532,
      "max": [
        0.14654351770877838,
        0.2554910182952881,
        0.12929318845272064
      ],
      "min": [
        -0.15034520626068115,
        -0.2295112907886505,
        -0.10877832025289536
      ],
      "type": "VEC3"
    },
    {
      "bufferView": 2,
      "byteOffset": 7077456,
      "componentType": 5126,
      "count": 65532,
      "max": [
        0.9999996423721313,
        0.9998354911804199,
        0.9997848272323608
      ],
      "min": [
        -0.999980092048645,
        -0.9999920129776001,
        -0.9999693632125854
      ],
      "type": "VEC3"
    },
    {
      "bufferView": 1,
      "byteOffset": 2097024,
      "componentType": 5126,
      "count": 65532,
      "max": [
        0.47773000597953796,
        0.9996880292892456
      ],
      "min": [
        0.0003169999981764704,
        0.00037200000951997936
      ],
      "type": "VEC2"
    },
    {
      "bufferView": 0,
      "byteOffset": 5107932,
      "componentType": 5125,
      "count": 328707,
      "type": "SCALAR"
    },
    {
      "bufferView": 2,
      "byteOffset": 7863840,
      "componentType": 5126,
      "count": 46054,
      "max": [
        0.14926713705062866,
        0.2554910182952881,
        0.13750214874744415
      ],
      "min": [
        -0.14586949348449707,
        -0.22878319025039673,
        -0.10575736314058304
      ],
      "type": "VEC3"
    },
    {
      "bufferView": 2,
      "byteOffset": 8416488,
      "componentType": 5126,
      "count": 46054,
      "max": [
        0.9997276067733765,
        0.9999245405197144,
        0.9999915361404419
      ],
      "min": [
        -0.9999895095825195,
        -0.9999994039535522,
        -0.9999969005584717
      ],
      "type": "VEC3"
    },
    {
      "bufferView": 1,
      "byteOffset": 2621280,
      "componentType": 5126,
      "count": 46054,
      "max": [
        0.5918310284614563,
        0.9947320222854614
      ],
      "min": [
        0.032719001173973083,
        0.0003420000139158219
      ],
      "type": "VEC2"
    },
    {
      "bufferView": 0,
      "byteOffset": 6422760,
      "componentType": 5125,
      "count": 219426,
      "type": "SCALAR"
    }
  ],
  "asset": {
    "extras": {
      "author": "marcteuber (https://sketchfab.com/marcteuber)",
      "license": "CC-BY-4.0 (http://creativecommons.org/licenses/by/4.0/)",
      "source": "https://sketchfab.com/3d-models/greek-sculpture-scan-sofokles-vaporwave-32fd03fc110342598ae1da23e31afda4",
      "title": "Greek sculpture scan - Sofokles [Vaporwave]"
    },
    "generator": "Sketchfab-12.67.0",
    "version": "2.0"
  },
  "bufferViews": [
    {
      "buffer": 0,
      "byteLength": 7300464,
      "name": "floatBufferViews",
      "target": 34963
    },
    {
      "buffer": 0,
      "byteLength": 2989712,
      "byteOffset": 7300464,
      "byteStride": 8,
      "name": "floatBufferViews",
      "target": 34962
    },
    {
      "buffer": 0,
      "byteLength": 8969136,
      "byteOffset": 10290176,
      "byteStride": 12,
      "name": "floatBufferViews",
      "target": 34962
    }
  ],
  "buffers": [
    {
      "byteLength": 19259312,
      "uri": "scene.bin"
    }
  ],
  "materials": [
    {
      "doubleSided": true,
      "name": "Material.001",
      "pbrMetallicRoughness": {
        "metallicFactor": 0.0,
        "roughnessFactor": 0.29355836054210827
      }
    }
  ],
  "meshes": [
    {
      "name": "texturedMesh.001_Material.001_0",
      "primitives": [
        {
          "attributes": {
            "NORMAL": 1,
            "POSITION": 0,
            "TEXCOORD_0": 2
          },
          "indices": 3,
          "material": 0,
          "mode": 4
        }
      ]
    },
    {
      "name": "texturedMesh.001_Material.001_0",
      "primitives": [
        {
          "attributes": {
            "NORMAL": 5,
            "POSITION": 4,
            "TEXCOORD_0": 6
          },
          "indices": 7,
          "material": 0,
          "mode": 4
        }
      ]
    },
    {
      "name": "texturedMesh.001_Material.001_0",
      "primitives": [
        {
          "attributes": {
            "NORMAL": 9,
            "POSITION": 8,
            "TEXCOORD_0": 10
          },
          "indices": 11,
          "material": 0,
          "mode": 4
        }
      ]
    },
    {
      "name": "texturedMesh.001_Material.001_0",
      "primitives": [
        {
          "attributes": {
            "NORMAL": 13,
            "POSITION": 12,
            "TEXCOORD_0": 14
          },
          "indices": 15,
          "material": 0,
          "mode": 4
        }
      ]
    },
    {
      "name": "texturedMesh.001_Material.001_0",
      "primitives": [
        {
          "attributes": {
            "NORMAL": 17,
            "POSITION": 16,
            "TEXCOORD_0": 18
          },
          "indices": 19,
          "material": 0,
          "mode": 4
        }
      ]
    },
    {
      "name": "texturedMesh.001_Material.001_0",
      "primitives": [
        {
          "attributes": {
            "NORMAL": 21,
            "POSITION": 20,
            "TEXCOORD_0": 22
          },
          "indices": 23,
          "material": 0,
          "mode": 4
        }
      ]
    }
  ],
  "nodes": [
    {
      "children": [
        1
      ],
      "matrix": [
        1.0,
        0.0,
        0.0,
        0.0,
        0.0,
        2.220446049250313e-16,
        -1.0,
        0.0,
        0.0,
        1.0,
        2.220446049250313e-16,
        0.0,
        0.0,
        0.0,
        0.0,
        1.0
      ],
      "name": "Sketchfab_model"
    },
    {
      "children": [
        2
      ],
      "matrix": [
        1.0,
        0.0,
        0.0,
        0.0,
        0.0,
        0.0,
        1.0,
        0.0,
        0.0,
        -1.0,
        0.0,
        0.0,
        0.0,
        0.0,
        0.0,
        1.0
      ],
      "name": "820c318b25d44ade832926870862fa1a.fbx"
    },
    {
      "children": [
        3
      ],
      "name": "RootNode"
    },
    {
      "children": [
        4,
        5,
        6,
        7,
        8,
        9
      ],
      "matrix": [
        1067.5534768234224,
        145.2113971985967,
        -92.53277232001847,
        0.0,
        157.4728509159413,
        -1058.4181668498225,
        155.79678756529236,
        0.0,
        -69.64887846753237,
        -167.28404455867027,
        -1066.0596211589152,
        0.0,
        -16.218427658081055,
        198.29669189453125,
        -63.10486602783203,
        1.0
      ],
      "name": "texturedMesh.001"
    },
    {
      "mesh": 0,
      "name": "texturedMesh.001_Material.001_0"
    },
    {
      "mesh": 1,
      "name": "texturedMesh.001_Material.001_0"
    },
    {
      "mesh": 2,
      "name": "texturedMesh.001_Material.001_0"
    },
    {
      "mesh": 3,
      "name": "texturedMesh.001_Material.001_0"
    },
    {
      "mesh": 4,
      "name": "texturedMesh.001_Material.001_0"
    },
    {
      "mesh": 5,
      "name": "texturedMesh.001_Material.001_0"
    }
  ],
  "scene": 0,
  "scenes": [
    {
      "name": "Sketchfab_Scene",
      "nodes": [
        0
      ]
    }
  ]
}
